<svg xmlns="http://www.w3.org/2000/svg" xmlns:xlink="http://www.w3.org/1999/xlink" id="processonSvg1000" viewBox="104.99999999999996 66.0 1688.7613168724286 633.0" width="1688.7613168724286" height="633.0"><defs id="ProcessOnDefs1001"><marker id="ProcessOnMarker1034" markerUnits="userSpaceOnUse" orient="auto" markerWidth="16.23606797749979" markerHeight="10.550836550532098" viewBox="-1.0 -1.3763819204711736 16.23606797749979 10.550836550532098" refX="-1.0" refY="3.8990363547948754"><path id="ProcessOnPath1035" d="M12.0 3.8990363547948754L0.0 7.798072709589751V0.0Z" stroke="#323232" stroke-width="2.0" fill="#323232" transform="matrix(1.0,0.0,0.0,1.0,0.0,0.0)"/></marker><marker id="ProcessOnMarker1038" markerUnits="userSpaceOnUse" orient="auto" markerWidth="16.23606797749979" markerHeight="10.550836550532098" viewBox="-1.0 -1.3763819204711736 16.23606797749979 10.550836550532098" refX="-1.0" refY="3.8990363547948754"><path id="ProcessOnPath1039" d="M12.0 3.8990363547948754L0.0 7.798072709589751V0.0Z" stroke="#323232" stroke-width="2.0" fill="#323232" transform="matrix(1.0,0.0,0.0,1.0,0.0,0.0)"/></marker><marker id="ProcessOnMarker1042" markerUnits="userSpaceOnUse" orient="auto" markerWidth="16.23606797749979" markerHeight="10.550836550532098" viewBox="-1.0 -1.3763819204711736 16.23606797749979 10.550836550532098" refX="-1.0" refY="3.8990363547948754"><path id="ProcessOnPath1043" d="M12.0 3.8990363547948754L0.0 7.798072709589751V0.0Z" stroke="#323232" stroke-width="2.0" fill="#323232" transform="matrix(1.0,0.0,0.0,1.0,0.0,0.0)"/></marker><marker id="ProcessOnMarker1046" markerUnits="userSpaceOnUse" orient="auto" markerWidth="16.23606797749979" markerHeight="10.550836550532098" viewBox="-1.0 -1.3763819204711736 16.23606797749979 10.550836550532098" refX="-1.0" refY="3.8990363547948754"><path id="ProcessOnPath1047" d="M12.0 3.8990363547948754L0.0 7.798072709589751V0.0Z" stroke="#323232" stroke-width="2.0" fill="#323232" transform="matrix(1.0,0.0,0.0,1.0,0.0,0.0)"/></marker><marker id="ProcessOnMarker1050" markerUnits="userSpaceOnUse" orient="auto" markerWidth="16.23606797749979" markerHeight="10.550836550532098" viewBox="-1.0 -1.3763819204711736 16.23606797749979 10.550836550532098" refX="-1.0" refY="3.8990363547948754"><path id="ProcessOnPath1051" d="M12.0 3.8990363547948754L0.0 7.798072709589751V0.0Z" stroke="#323232" stroke-width="2.0" fill="#323232" transform="matrix(1.0,0.0,0.0,1.0,0.0,0.0)"/></marker><marker id="ProcessOnMarker1070" markerUnits="userSpaceOnUse" orient="auto" markerWidth="16.23606797749979" markerHeight="10.550836550532098" viewBox="-1.0 -1.3763819204711736 16.23606797749979 10.550836550532098" refX="-1.0" refY="3.8990363547948754"><path id="ProcessOnPath1071" d="M12.0 3.8990363547948754L0.0 7.798072709589751V0.0Z" stroke="#323232" stroke-width="2.0" fill="#323232" transform="matrix(1.0,0.0,0.0,1.0,0.0,0.0)"/></marker><marker id="ProcessOnMarker1085" markerUnits="userSpaceOnUse" orient="auto" markerWidth="16.23606797749979" markerHeight="10.550836550532098" viewBox="-1.0 -1.3763819204711736 16.23606797749979 10.550836550532098" refX="-1.0" refY="3.8990363547948754"><path id="ProcessOnPath1086" d="M12.0 3.8990363547948754L0.0 7.798072709589751V0.0Z" stroke="#323232" stroke-width="2.0" fill="#323232" transform="matrix(1.0,0.0,0.0,1.0,0.0,0.0)"/></marker><marker id="ProcessOnMarker1089" markerUnits="userSpaceOnUse" orient="auto" markerWidth="16.23606797749979" markerHeight="10.550836550532098" viewBox="-1.0 -1.3763819204711736 16.23606797749979 10.550836550532098" refX="-1.0" refY="3.8990363547948754"><path id="ProcessOnPath1090" d="M12.0 3.8990363547948754L0.0 7.798072709589751V0.0Z" stroke="#323232" stroke-width="2.0" fill="#323232" transform="matrix(1.0,0.0,0.0,1.0,0.0,0.0)"/></marker><marker id="ProcessOnMarker1103" markerUnits="userSpaceOnUse" orient="auto" markerWidth="16.23606797749979" markerHeight="10.550836550532098" viewBox="-1.0 -1.3763819204711736 16.23606797749979 10.550836550532098" refX="-1.0" refY="3.8990363547948754"><path id="ProcessOnPath1104" d="M12.0 3.8990363547948754L0.0 7.798072709589751V0.0Z" stroke="#323232" stroke-width="2.0" fill="#323232" transform="matrix(1.0,0.0,0.0,1.0,0.0,0.0)"/></marker><marker id="ProcessOnMarker1112" markerUnits="userSpaceOnUse" orient="auto" markerWidth="16.23606797749979" markerHeight="10.550836550532098" viewBox="-1.0 -1.3763819204711736 16.23606797749979 10.550836550532098" refX="-1.0" refY="3.8990363547948754"><path id="ProcessOnPath1113" d="M12.0 3.8990363547948754L0.0 7.798072709589751V0.0Z" stroke="#323232" stroke-width="2.0" fill="#323232" transform="matrix(1.0,0.0,0.0,1.0,0.0,0.0)"/></marker><marker id="ProcessOnMarker1116" markerUnits="userSpaceOnUse" orient="auto" markerWidth="16.23606797749979" markerHeight="10.550836550532098" viewBox="-1.0 -1.3763819204711736 16.23606797749979 10.550836550532098" refX="-1.0" refY="3.8990363547948754"><path id="ProcessOnPath1117" d="M12.0 3.8990363547948754L0.0 7.798072709589751V0.0Z" stroke="#323232" stroke-width="2.0" fill="#323232" transform="matrix(1.0,0.0,0.0,1.0,0.0,0.0)"/></marker><marker id="ProcessOnMarker1133" markerUnits="userSpaceOnUse" orient="auto" markerWidth="16.23606797749979" markerHeight="10.550836550532098" viewBox="-1.0 -1.3763819204711736 16.23606797749979 10.550836550532098" refX="-1.0" refY="3.8990363547948754"><path id="ProcessOnPath1134" d="M12.0 3.8990363547948754L0.0 7.798072709589751V0.0Z" stroke="#323232" stroke-width="2.0" fill="#323232" transform="matrix(1.0,0.0,0.0,1.0,0.0,0.0)"/></marker><marker id="ProcessOnMarker1146" markerUnits="userSpaceOnUse" orient="auto" markerWidth="16.23606797749979" markerHeight="10.550836550532098" viewBox="-1.0 -1.3763819204711736 16.23606797749979 10.550836550532098" refX="-1.0" refY="3.8990363547948754"><path id="ProcessOnPath1147" d="M12.0 3.8990363547948754L0.0 7.798072709589751V0.0Z" stroke="#323232" stroke-width="2.0" fill="#323232" transform="matrix(1.0,0.0,0.0,1.0,0.0,0.0)"/></marker><marker id="ProcessOnMarker1156" markerUnits="userSpaceOnUse" orient="auto" markerWidth="16.23606797749979" markerHeight="10.550836550532098" viewBox="-1.0 -1.3763819204711736 16.23606797749979 10.550836550532098" refX="-1.0" refY="3.8990363547948754"><path id="ProcessOnPath1157" d="M12.0 3.8990363547948754L0.0 7.798072709589751V0.0Z" stroke="#323232" stroke-width="2.0" fill="#323232" transform="matrix(1.0,0.0,0.0,1.0,0.0,0.0)"/></marker><marker id="ProcessOnMarker1160" markerUnits="userSpaceOnUse" orient="auto" markerWidth="16.23606797749979" markerHeight="10.550836550532098" viewBox="-1.0 -1.3763819204711736 16.23606797749979 10.550836550532098" refX="-1.0" refY="3.8990363547948754"><path id="ProcessOnPath1161" d="M12.0 3.8990363547948754L0.0 7.798072709589751V0.0Z" stroke="#323232" stroke-width="2.0" fill="#323232" transform="matrix(1.0,0.0,0.0,1.0,0.0,0.0)"/></marker><marker id="ProcessOnMarker1164" markerUnits="userSpaceOnUse" orient="auto" markerWidth="16.23606797749979" markerHeight="10.550836550532098" viewBox="-1.0 -1.3763819204711736 16.23606797749979 10.550836550532098" refX="-1.0" refY="3.8990363547948754"><path id="ProcessOnPath1165" d="M12.0 3.8990363547948754L0.0 7.798072709589751V0.0Z" stroke="#323232" stroke-width="2.0" fill="#323232" transform="matrix(1.0,0.0,0.0,1.0,0.0,0.0)"/></marker><marker id="ProcessOnMarker1168" markerUnits="userSpaceOnUse" orient="auto" markerWidth="16.23606797749979" markerHeight="10.550836550532098" viewBox="-1.0 -1.3763819204711736 16.23606797749979 10.550836550532098" refX="-1.0" refY="3.8990363547948754"><path id="ProcessOnPath1169" d="M12.0 3.8990363547948754L0.0 7.798072709589751V0.0Z" stroke="#323232" stroke-width="2.0" fill="#323232" transform="matrix(1.0,0.0,0.0,1.0,0.0,0.0)"/></marker><marker id="ProcessOnMarker1180" markerUnits="userSpaceOnUse" orient="auto" markerWidth="16.23606797749979" markerHeight="10.550836550532098" viewBox="-1.0 -1.3763819204711736 16.23606797749979 10.550836550532098" refX="-1.0" refY="3.8990363547948754"><path id="ProcessOnPath1181" d="M12.0 3.8990363547948754L0.0 7.798072709589751V0.0Z" stroke="#323232" stroke-width="2.0" fill="#323232" transform="matrix(1.0,0.0,0.0,1.0,0.0,0.0)"/></marker><marker id="ProcessOnMarker1189" markerUnits="userSpaceOnUse" orient="auto" markerWidth="16.23606797749979" markerHeight="10.550836550532098" viewBox="-1.0 -1.3763819204711736 16.23606797749979 10.550836550532098" refX="-1.0" refY="3.8990363547948754"><path id="ProcessOnPath1190" d="M12.0 3.8990363547948754L0.0 7.798072709589751V0.0Z" stroke="#323232" stroke-width="2.0" fill="#323232" transform="matrix(1.0,0.0,0.0,1.0,0.0,0.0)"/></marker><marker id="ProcessOnMarker1193" markerUnits="userSpaceOnUse" orient="auto" markerWidth="16.23606797749979" markerHeight="10.550836550532098" viewBox="-1.0 -1.3763819204711736 16.23606797749979 10.550836550532098" refX="-1.0" refY="3.8990363547948754"><path id="ProcessOnPath1194" d="M12.0 3.8990363547948754L0.0 7.798072709589751V0.0Z" stroke="#323232" stroke-width="2.0" fill="#323232" transform="matrix(1.0,0.0,0.0,1.0,0.0,0.0)"/></marker><marker id="ProcessOnMarker1213" markerUnits="userSpaceOnUse" orient="auto" markerWidth="16.23606797749979" markerHeight="10.550836550532098" viewBox="-1.0 -1.3763819204711736 16.23606797749979 10.550836550532098" refX="-1.0" refY="3.8990363547948754"><path id="ProcessOnPath1214" d="M12.0 3.8990363547948754L0.0 7.798072709589751V0.0Z" stroke="#323232" stroke-width="2.0" fill="#323232" transform="matrix(1.0,0.0,0.0,1.0,0.0,0.0)"/></marker><marker id="ProcessOnMarker1217" markerUnits="userSpaceOnUse" orient="auto" markerWidth="16.23606797749979" markerHeight="10.550836550532098" viewBox="-1.0 -1.3763819204711736 16.23606797749979 10.550836550532098" refX="-1.0" refY="3.8990363547948754"><path id="ProcessOnPath1218" d="M12.0 3.8990363547948754L0.0 7.798072709589751V0.0Z" stroke="#323232" stroke-width="2.0" fill="#323232" transform="matrix(1.0,0.0,0.0,1.0,0.0,0.0)"/></marker><marker id="ProcessOnMarker1227" markerUnits="userSpaceOnUse" orient="auto" markerWidth="16.23606797749979" markerHeight="10.550836550532098" viewBox="-1.0 -1.3763819204711736 16.23606797749979 10.550836550532098" refX="-1.0" refY="3.8990363547948754"><path id="ProcessOnPath1228" d="M12.0 3.8990363547948754L0.0 7.798072709589751V0.0Z" stroke="#323232" stroke-width="2.0" fill="#323232" transform="matrix(1.0,0.0,0.0,1.0,0.0,0.0)"/></marker><marker id="ProcessOnMarker1231" markerUnits="userSpaceOnUse" orient="auto" markerWidth="16.23606797749979" markerHeight="10.550836550532098" viewBox="-1.0 -1.3763819204711736 16.23606797749979 10.550836550532098" refX="-1.0" refY="3.8990363547948754"><path id="ProcessOnPath1232" d="M12.0 3.8990363547948754L0.0 7.798072709589751V0.0Z" stroke="#323232" stroke-width="2.0" fill="#323232" transform="matrix(1.0,0.0,0.0,1.0,0.0,0.0)"/></marker><marker id="ProcessOnMarker1235" markerUnits="userSpaceOnUse" orient="auto" markerWidth="16.23606797749979" markerHeight="10.550836550532098" viewBox="-1.0 -1.3763819204711736 16.23606797749979 10.550836550532098" refX="-1.0" refY="3.8990363547948754"><path id="ProcessOnPath1236" d="M12.0 3.8990363547948754L0.0 7.798072709589751V0.0Z" stroke="#323232" stroke-width="2.0" fill="#323232" transform="matrix(1.0,0.0,0.0,1.0,0.0,0.0)"/></marker><marker id="ProcessOnMarker1248" markerUnits="userSpaceOnUse" orient="auto" markerWidth="16.23606797749979" markerHeight="10.550836550532098" viewBox="-1.0 -1.3763819204711736 16.23606797749979 10.550836550532098" refX="-1.0" refY="3.8990363547948754"><path id="ProcessOnPath1249" d="M12.0 3.8990363547948754L0.0 7.798072709589751V0.0Z" stroke="#323232" stroke-width="2.0" fill="#323232" transform="matrix(1.0,0.0,0.0,1.0,0.0,0.0)"/></marker><marker id="ProcessOnMarker1252" markerUnits="userSpaceOnUse" orient="auto" markerWidth="16.23606797749979" markerHeight="10.550836550532098" viewBox="-1.0 -1.3763819204711736 16.23606797749979 10.550836550532098" refX="-1.0" refY="3.8990363547948754"><path id="ProcessOnPath1253" d="M12.0 3.8990363547948754L0.0 7.798072709589751V0.0Z" stroke="#323232" stroke-width="2.0" fill="#323232" transform="matrix(1.0,0.0,0.0,1.0,0.0,0.0)"/></marker><marker id="ProcessOnMarker1259" markerUnits="userSpaceOnUse" orient="auto" markerWidth="16.23606797749979" markerHeight="10.550836550532098" viewBox="-1.0 -1.3763819204711736 16.23606797749979 10.550836550532098" refX="-1.0" refY="3.8990363547948754"><path id="ProcessOnPath1260" d="M12.0 3.8990363547948754L0.0 7.798072709589751V0.0Z" stroke="#323232" stroke-width="2.0" fill="#323232" transform="matrix(1.0,0.0,0.0,1.0,0.0,0.0)"/></marker><marker id="ProcessOnMarker1266" markerUnits="userSpaceOnUse" orient="auto" markerWidth="16.23606797749979" markerHeight="10.550836550532098" viewBox="-1.0 -1.3763819204711736 16.23606797749979 10.550836550532098" refX="-1.0" refY="3.8990363547948754"><path id="ProcessOnPath1267" d="M12.0 3.8990363547948754L0.0 7.798072709589751V0.0Z" stroke="#323232" stroke-width="2.0" fill="#323232" transform="matrix(1.0,0.0,0.0,1.0,0.0,0.0)"/></marker></defs><g id="ProcessOnG1002"><path id="ProcessOnPath1003" d="M104.99999999999996 66.0H1793.7613168724286V699.0H105.0V66.0Z" fill="none"/><g id="ProcessOnG1004"><g id="ProcessOnG1005" transform="matrix(1.0,0.0,0.0,1.0,124.99999999999996,214.66666666666669)" opacity="1.0"><path id="ProcessOnPath1006" d="M16.0 0.0L96.0 0.0C80.0 0.0 80.0 94.0 96.0 94.0L16.0 94.0C-5.647058823529412 94.0 -5.647058823529412 0.0 13.714285714285714 0.0Z" stroke="#323232" stroke-width="2.0" stroke-dasharray="none" opacity="1.0" fill="#ffccff"/><g id="ProcessOnG1007" transform="matrix(1.0,0.0,0.0,1.0,9.600000000000001,30.75)"><text id="ProcessOnText1008" fill="#000000" font-size="13" x="35.0" y="13.325" font-family="微软雅黑" font-weight="normal" font-style="normal" text-decoration="none" family="微软雅黑" text-anchor="middle" size="13">RGB-D相机</text><text id="ProcessOnText1009" fill="#000000" font-size="13" x="35.0" y="29.575" font-family="微软雅黑" font-weight="normal" font-style="normal" text-decoration="none" family="微软雅黑" text-anchor="middle" size="13">采集数据</text></g></g><g id="ProcessOnG1010" transform="matrix(1.0,0.0,0.0,1.0,298.0,289.0)" opacity="1.0"><path id="ProcessOnPath1011" d="M0.0 0.0L117.0 0.0L117.0 29.0L0.0 29.0Z" stroke="#323232" stroke-width="2.0" stroke-dasharray="none" opacity="1.0" fill="#ffffff"/><g id="ProcessOnG1012" transform="matrix(1.0,0.0,0.0,1.0,10.0,6.375)"><text id="ProcessOnText1013" fill="#000000" font-size="13" x="47.5" y="13.325" font-family="微软雅黑" font-weight="normal" font-style="normal" text-decoration="none" family="微软雅黑" text-anchor="middle" size="13">抓取目标位置</text></g></g><g id="ProcessOnG1014" transform="matrix(1.0,0.0,0.0,1.0,298.0,191.0)" opacity="1.0"><path id="ProcessOnPath1015" d="M0.0 0.0L117.0 0.0L117.0 40.0L0.0 40.0Z" stroke="#323232" stroke-width="2.0" stroke-dasharray="none" opacity="1.0" fill="#ffffff"/><g id="ProcessOnG1016" transform="matrix(1.0,0.0,0.0,1.0,10.0,3.75)"><text id="ProcessOnText1017" fill="#000000" font-size="13" x="47.5" y="13.325" font-family="微软雅黑" font-weight="normal" font-style="normal" text-decoration="none" family="微软雅黑" text-anchor="middle" size="13">障碍物外包围</text><text id="ProcessOnText1018" fill="#000000" font-size="13" x="47.5" y="29.575" font-family="微软雅黑" font-weight="normal" font-style="normal" text-decoration="none" family="微软雅黑" text-anchor="middle" size="13">点云数据</text></g></g><g id="ProcessOnG1019" transform="matrix(1.0,0.0,0.0,1.0,468.3333333333335,284.25)" opacity="1.0"><path id="ProcessOnPath1020" d="M0.0 0.0L157.0 0.0L157.0 38.5L0.0 38.5Z" stroke="#323232" stroke-width="2.0" stroke-dasharray="none" opacity="1.0" fill="#ffffff"/><g id="ProcessOnG1021" transform="matrix(1.0,0.0,0.0,1.0,10.0,3.0)"><text id="ProcessOnText1022" fill="#000000" font-size="13" x="67.5" y="13.325" font-family="微软雅黑" font-weight="normal" font-style="normal" text-decoration="none" family="微软雅黑" text-anchor="middle" size="13">换算成腕关节位置</text><text id="ProcessOnText1023" fill="#000000" font-size="13" x="67.5" y="29.575" font-family="微软雅黑" font-weight="normal" font-style="normal" text-decoration="none" family="微软雅黑" text-anchor="middle" size="13">（随机采样空间终点）</text></g></g><g id="ProcessOnG1024" transform="matrix(1.0,0.0,0.0,1.0,500.5,114.0)" opacity="1.0"><path id="ProcessOnPath1025" d="M0.0 0.0L100.0 0.0L100.0 70.0L0.0 70.0Z" stroke="#323232" stroke-width="2.0" stroke-dasharray="none" opacity="1.0" fill="#ffffff"/><g id="ProcessOnG1026" transform="matrix(1.0,0.0,0.0,1.0,10.0,26.875)"><text id="ProcessOnText1027" fill="#000000" font-size="13" x="39.0" y="13.325" font-family="微软雅黑" font-weight="normal" font-style="normal" text-decoration="none" family="微软雅黑" text-anchor="middle" size="13">三维环境描述</text></g></g><g id="ProcessOnG1028" transform="matrix(1.0,0.0,0.0,1.0,298.0,86.0)" opacity="1.0"><path id="ProcessOnPath1029" d="M23.333333333333332 0.0L124.0 0.0L100.66666666666667 70.0L0.0 70.0L23.333333333333332 0.0Z" stroke="#323232" stroke-width="2.0" stroke-dasharray="none" opacity="1.0" fill="#ccffcc"/><g id="ProcessOnG1030" transform="matrix(1.0,0.0,0.0,1.0,18.599999999999998,26.875)"><text id="ProcessOnText1031" fill="#000000" font-size="13" x="42.4" y="13.325" font-family="微软雅黑" font-weight="normal" font-style="normal" text-decoration="none" family="微软雅黑" text-anchor="middle" size="13">桌面数据</text></g></g><g id="ProcessOnG1032"><path id="ProcessOnPath1033" d="M410.3333333333333 121.0L455.41666666666663 121.0L455.41666666666663 149.0L485.2639320225002 149.0" stroke="#323232" stroke-width="2.0" stroke-dasharray="none" fill="none" marker-end="url(#ProcessOnMarker1034)"/></g><g id="ProcessOnG1036"><path id="ProcessOnPath1037" d="M415.0 211.0L453.75 211.0L453.75 149.0L485.2639320225002 149.0" stroke="#323232" stroke-width="2.0" stroke-dasharray="none" fill="none" marker-end="url(#ProcessOnMarker1038)"/></g><g id="ProcessOnG1040"><path id="ProcessOnPath1041" d="M209.24999999999994 261.66666666666663L253.62499999999997 261.66666666666663L253.62499999999997 211.0L282.7639320225002 211.0" stroke="#323232" stroke-width="2.0" stroke-dasharray="none" fill="none" marker-end="url(#ProcessOnMarker1042)"/></g><g id="ProcessOnG1044"><path id="ProcessOnPath1045" d="M209.24999999999994 261.66666666666663L253.62499999999997 261.66666666666663L253.62499999999997 303.5L282.7639320225002 303.5" stroke="#323232" stroke-width="2.0" stroke-dasharray="none" fill="none" marker-end="url(#ProcessOnMarker1046)"/></g><g id="ProcessOnG1048"><path id="ProcessOnPath1049" d="M415.0 303.5L441.66666666666674 303.5L441.66666666666674 303.5L453.0972653558337 303.5" stroke="#323232" stroke-width="2.0" stroke-dasharray="none" fill="none" marker-end="url(#ProcessOnMarker1050)"/></g><g id="ProcessOnG1052" transform="matrix(1.0,0.0,0.0,1.0,128.04938271604942,102.18055555555551)" opacity="1.0"><path id="ProcessOnPath1053" d="M11.939814814814818 0.0L70.72685185185183 0.0C86.6466049382716 0.0 86.6466049382716 35.81944444444446 70.72685185185183 35.81944444444446L11.939814814814818 35.81944444444446C-3.9799382716049396 35.81944444444446 -3.9799382716049396 0.0 11.939814814814818 0.0Z" stroke="#323232" stroke-width="2.0" stroke-dasharray="none" opacity="1.0" fill="#0000ff"/><g id="ProcessOnG1054" transform="matrix(1.0,0.0,0.0,1.0,10.0,9.784722222222229)"><text id="ProcessOnText1055" fill="#ffffff" font-size="13" x="30.33333333333333" y="13.325" font-family="微软雅黑" font-weight="normal" font-style="normal" text-decoration="none" family="微软雅黑" text-anchor="middle" size="13">开始</text></g></g><g id="ProcessOnG1056" transform="matrix(1.0,0.0,0.0,1.0,200.66666666666669,496.3333333333333)" opacity="1.0"><path id="ProcessOnPath1057" d="M23.333333333333332 0.0L100.0 0.0L76.66666666666667 70.0L0.0 70.0L23.333333333333332 0.0Z" stroke="#323232" stroke-width="2.0" stroke-dasharray="none" opacity="1.0" fill="#ccffcc"/><g id="ProcessOnG1058" transform="matrix(1.0,0.0,0.0,1.0,15.0,26.875)"><text id="ProcessOnText1059" fill="#000000" font-size="13" x="34.0" y="13.325" font-family="微软雅黑" font-weight="normal" font-style="normal" text-decoration="none" family="微软雅黑" text-anchor="middle" size="13">D-H参数</text></g></g><g id="ProcessOnG1060" transform="matrix(1.0,0.0,0.0,1.0,212.03703703703707,377.99725651577535)" opacity="1.0"><path id="ProcessOnPath1061" d="M23.333333333333332 0.0L100.0 0.0L76.66666666666667 70.0L0.0 70.0L23.333333333333332 0.0Z" stroke="#323232" stroke-width="2.0" stroke-dasharray="none" opacity="1.0" fill="#ccffcc"/><g id="ProcessOnG1062" transform="matrix(1.0,0.0,0.0,1.0,15.0,26.875)"><text id="ProcessOnText1063" fill="#000000" font-size="13" x="34.0" y="13.325" font-family="微软雅黑" font-weight="normal" font-style="normal" text-decoration="none" family="微软雅黑" text-anchor="middle" size="13">起始关节角</text></g></g><g id="ProcessOnG1064" transform="matrix(1.0,0.0,0.0,1.0,444.777777777778,546.3086419753084)" opacity="1.0"><path id="ProcessOnPath1065" d="M0.0 0.0L120.5 0.0L120.5 76.22222222222234L0.0 76.22222222222234Z" stroke="#323232" stroke-width="2.0" stroke-dasharray="none" opacity="1.0" fill="#ffffff"/><g id="ProcessOnG1066" transform="matrix(1.0,0.0,0.0,1.0,10.0,29.98611111111117)"><text id="ProcessOnText1067" fill="#000000" font-size="13" x="49.25" y="13.325" font-family="微软雅黑" font-weight="normal" font-style="normal" text-decoration="none" family="微软雅黑" text-anchor="middle" size="13">冗余机械臂模型</text></g></g><g id="ProcessOnG1068"><path id="ProcessOnPath1069" d="M289.00000000000006 531.333333333333L366.888888888889 531.333333333333L366.888888888889 584.4197530864196L429.5417098002782 584.4197530864196" stroke="#323232" stroke-width="2.0" stroke-dasharray="none" fill="none" marker-end="url(#ProcessOnMarker1070)"/></g><g id="ProcessOnG1072" transform="matrix(1.0,0.0,0.0,1.0,640.3333333333335,426.7500000000001)" opacity="1.0"><path id="ProcessOnPath1073" d="M0.0 0.0L157.0 0.0L157.0 38.5L0.0 38.5Z" stroke="#323232" stroke-width="2.0" stroke-dasharray="none" opacity="1.0" fill="#ffffff"/><g id="ProcessOnG1074" transform="matrix(1.0,0.0,0.0,1.0,10.0,3.0)"><text id="ProcessOnText1075" fill="#000000" font-size="13" x="67.5" y="13.325" font-family="微软雅黑" font-weight="normal" font-style="normal" text-decoration="none" family="微软雅黑" text-anchor="middle" size="13">腕关节位置</text><text id="ProcessOnText1076" fill="#000000" font-size="13" x="67.5" y="29.575" font-family="微软雅黑" font-weight="normal" font-style="normal" text-decoration="none" family="微软雅黑" text-anchor="middle" size="13">（随机采样空间起点）</text></g></g><g id="ProcessOnG1077" transform="matrix(1.0,0.0,0.0,1.0,912.0000000000002,348.222222222222)" opacity="1.0"><path id="ProcessOnPath1078" d="M0.0 0.0L111.0 0.0L111.0 54.0L0.0 54.0Z" stroke="#323232" stroke-width="2.0" stroke-dasharray="none" opacity="1.0" fill="#ffffff"/><g id="ProcessOnG1079" transform="matrix(1.0,0.0,0.0,1.0,10.0,2.625)"><text id="ProcessOnText1080" fill="#000000" font-size="13" x="44.5" y="13.325" font-family="微软雅黑" font-weight="normal" font-style="normal" text-decoration="none" family="微软雅黑" text-anchor="middle" size="13">从起点到终点</text><text id="ProcessOnText1081" fill="#000000" font-size="13" x="44.5" y="29.575" font-family="微软雅黑" font-weight="normal" font-style="normal" text-decoration="none" family="微软雅黑" text-anchor="middle" size="13">随机采样一个</text><text id="ProcessOnText1082" fill="#000000" font-size="13" x="44.5" y="45.825" font-family="微软雅黑" font-weight="normal" font-style="normal" text-decoration="none" family="微软雅黑" text-anchor="middle" size="13">点</text></g></g><g id="ProcessOnG1083"><path id="ProcessOnPath1084" d="M625.3333333333335 303.5L651.5 303.5L651.5 303.5L662.4305986891668 303.5" stroke="#323232" stroke-width="2.0" stroke-dasharray="none" fill="none" marker-end="url(#ProcessOnMarker1085)"/></g><g id="ProcessOnG1087"><path id="ProcessOnPath1088" d="M797.3333333333335 446.0000000000001L854.6666666666669 446.0000000000001L854.6666666666669 375.222222222222L896.7639320225004 375.222222222222" stroke="#323232" stroke-width="2.0" stroke-dasharray="none" fill="none" marker-end="url(#ProcessOnMarker1089)"/></g><g id="ProcessOnG1091" transform="matrix(1.0,0.0,0.0,1.0,1232.9999999999995,225.0)" opacity="1.0"><path id="ProcessOnPath1092" d="M0.0 35.0L45.0 0.0L90.0 35.0L45.0 70.0L0.0 35.0Z" stroke="#323232" stroke-width="2.0" stroke-dasharray="none" opacity="1.0" fill="#ffffff"/><g id="ProcessOnG1093" transform="matrix(1.0,0.0,0.0,1.0,10.0,18.75)"><text id="ProcessOnText1094" fill="#000000" font-size="13" x="34.0" y="13.325" font-family="微软雅黑" font-weight="normal" font-style="normal" text-decoration="none" family="微软雅黑" text-anchor="middle" size="13">机械臂与环</text><text id="ProcessOnText1095" fill="#000000" font-size="13" x="34.0" y="29.575" font-family="微软雅黑" font-weight="normal" font-style="normal" text-decoration="none" family="微软雅黑" text-anchor="middle" size="13">境碰撞检测</text></g></g><g id="ProcessOnG1096" transform="matrix(1.0,0.0,0.0,1.0,830.6666666666671,539.2592592592594)" opacity="1.0"><path id="ProcessOnPath1097" d="M0.0 0.0L136.33333333333337 0.0L136.33333333333337 85.33333333333348L0.0 85.33333333333348Z" stroke="#323232" stroke-width="2.0" stroke-dasharray="none" opacity="1.0" fill="#ffffff"/><g id="ProcessOnG1098" transform="matrix(1.0,0.0,0.0,1.0,10.0,26.416666666666742)"><text id="ProcessOnText1099" fill="#000000" font-size="13" x="57.166666666666686" y="13.325" font-family="微软雅黑" font-weight="normal" font-style="normal" text-decoration="none" family="微软雅黑" text-anchor="middle" size="13">基于臂型角</text><text id="ProcessOnText1100" fill="#000000" font-size="13" x="57.166666666666686" y="29.575" font-family="微软雅黑" font-weight="normal" font-style="normal" text-decoration="none" family="微软雅黑" text-anchor="middle" size="13">机械臂运动学反解</text></g></g><g id="ProcessOnG1101"><path id="ProcessOnPath1102" d="M565.277777777778 584.4197530864196L697.9722222222226 584.4197530864196L697.9722222222226 581.9259259259264L815.4305986891673 581.9259259259264" stroke="#323232" stroke-width="2.0" stroke-dasharray="none" fill="none" marker-end="url(#ProcessOnMarker1103)"/></g><g id="ProcessOnG1105" transform="matrix(1.0,0.0,0.0,1.0,1009.9999999999997,546.7777777777779)" opacity="1.0"><path id="ProcessOnPath1106" d="M0.0 0.0L155.0 0.0L155.0 69.77777777777783L0.0 69.77777777777783Z" stroke="#323232" stroke-width="2.0" stroke-dasharray="none" opacity="1.0" fill="#ffffff"/><g id="ProcessOnG1107" transform="matrix(1.0,0.0,0.0,1.0,10.0,18.638888888888914)"><text id="ProcessOnText1108" fill="#000000" font-size="13" x="66.5" y="13.325" font-family="微软雅黑" font-weight="normal" font-style="normal" text-decoration="none" family="微软雅黑" text-anchor="middle" size="13">对应每组反解</text><text id="ProcessOnText1109" fill="#000000" font-size="13" x="66.5" y="29.575" font-family="微软雅黑" font-weight="normal" font-style="normal" text-decoration="none" family="微软雅黑" text-anchor="middle" size="13">机械臂的碰撞模型</text></g></g><g id="ProcessOnG1110"><path id="ProcessOnPath1111" d="M967.0000000000005 581.9259259259264L988.5 581.9259259259264L988.5 581.6666666666667L994.7639320224998 581.6666666666667" stroke="#323232" stroke-width="2.0" stroke-dasharray="none" fill="none" marker-end="url(#ProcessOnMarker1112)"/></g><g id="ProcessOnG1114"><path id="ProcessOnPath1115" d="M600.5 149.0L1277.9999999999995 149.0L1277.9999999999995 209.7639320225002" stroke="#323232" stroke-width="2.0" stroke-dasharray="none" fill="none" marker-end="url(#ProcessOnMarker1116)"/></g><g id="ProcessOnG1118" transform="matrix(1.0,0.0,0.0,1.0,1386.0000000000005,207.92729766803836)" opacity="1.0"><path id="ProcessOnPath1119" d="M0.0 0.0L148.6666666666663 0.0L148.6666666666663 103.0L0.0 103.0Z" stroke="#323232" stroke-width="2.0" stroke-dasharray="none" opacity="1.0" fill="#ffffff"/><g id="ProcessOnG1120" transform="matrix(1.0,0.0,0.0,1.0,10.0,10.875)"><text id="ProcessOnText1121" fill="#000000" font-size="13" x="63.333333333333144" y="13.325" font-family="微软雅黑" font-weight="normal" font-style="normal" text-decoration="none" family="微软雅黑" text-anchor="middle" size="13">将此采样点加入无碰</text><text id="ProcessOnText1122" fill="#000000" font-size="13" x="63.333333333333144" y="29.575" font-family="微软雅黑" font-weight="normal" font-style="normal" text-decoration="none" family="微软雅黑" text-anchor="middle" size="13">撞路径节点列表；</text><text id="ProcessOnText1123" fill="#000000" font-size="13" x="63.333333333333144" y="45.825" font-family="微软雅黑" font-weight="normal" font-style="normal" text-decoration="none" family="微软雅黑" text-anchor="middle" size="13">将对应的反解数据加</text><text id="ProcessOnText1124" fill="#000000" font-size="13" x="63.333333333333144" y="62.075" font-family="微软雅黑" font-weight="normal" font-style="normal" text-decoration="none" family="微软雅黑" text-anchor="middle" size="13">入此路径点的可用反</text><text id="ProcessOnText1125" fill="#000000" font-size="13" x="63.333333333333144" y="78.325" font-family="微软雅黑" font-weight="normal" font-style="normal" text-decoration="none" family="微软雅黑" text-anchor="middle" size="13">解</text></g></g><g id="ProcessOnG1126" transform="matrix(1.0,0.0,0.0,1.0,677.6666666666666,268.5)" opacity="1.0"><path id="ProcessOnPath1127" d="M0.0 35.0L53.83333333333337 0.0L107.66666666666674 35.0L53.83333333333337 70.0L0.0 35.0Z" stroke="#323232" stroke-width="2.0" stroke-dasharray="none" opacity="1.0" fill="#ffffff"/><g id="ProcessOnG1128" transform="matrix(1.0,0.0,0.0,1.0,10.0,18.75)"><text id="ProcessOnText1129" fill="#000000" font-size="13" x="42.83333333333337" y="13.325" font-family="微软雅黑" font-weight="normal" font-style="normal" text-decoration="none" family="微软雅黑" text-anchor="middle" size="13">是否在机械臂</text><text id="ProcessOnText1130" fill="#000000" font-size="13" x="42.83333333333337" y="29.575" font-family="微软雅黑" font-weight="normal" font-style="normal" text-decoration="none" family="微软雅黑" text-anchor="middle" size="13">工作空间内</text></g></g><g id="ProcessOnG1131"><path id="ProcessOnPath1132" d="M785.3333333333334 303.5L848.6666666666667 303.5L848.6666666666667 375.222222222222L896.7639320225004 375.222222222222" stroke="#323232" stroke-width="2.0" stroke-dasharray="none" fill="none" marker-end="url(#ProcessOnMarker1133)"/><g id="ProcessOnG1135" transform="matrix(1.0,0.0,0.0,1.0,848.6666666666667,323.6180771223611)"><path id="ProcessOnPath1136" d="M0 0H21.0V16.25H0Z" fill="#fff" transform="matrix(1.0,0.0,0.0,1.0,-10.5,0.0)"/><text id="ProcessOnText1137" fill="#000000" font-size="13" x="0.0" y="13.325" font-family="微软雅黑" font-weight="normal" font-style="normal" text-decoration="none" family="微软雅黑" text-anchor="middle" size="13">Yes</text></g></g><g id="ProcessOnG1138" transform="matrix(1.0,0.0,0.0,1.0,198.14814814814815,609.0)" opacity="1.0"><path id="ProcessOnPath1139" d="M23.333333333333332 0.0L100.0 0.0L76.66666666666667 70.0L0.0 70.0L23.333333333333332 0.0Z" stroke="#323232" stroke-width="2.0" stroke-dasharray="none" opacity="1.0" fill="#ccffcc"/><g id="ProcessOnG1140" transform="matrix(1.0,0.0,0.0,1.0,15.0,10.625)"><text id="ProcessOnText1141" fill="#000000" font-size="13" x="34.0" y="13.325" font-family="微软雅黑" font-weight="normal" font-style="normal" text-decoration="none" family="微软雅黑" text-anchor="middle" size="13">机械臂外形</text><text id="ProcessOnText1142" fill="#000000" font-size="13" x="34.0" y="29.575" font-family="微软雅黑" font-weight="normal" font-style="normal" text-decoration="none" family="微软雅黑" text-anchor="middle" size="13">参数及安装</text><text id="ProcessOnText1143" fill="#000000" font-size="13" x="34.0" y="45.825" font-family="微软雅黑" font-weight="normal" font-style="normal" text-decoration="none" family="微软雅黑" text-anchor="middle" size="13">位置</text></g></g><g id="ProcessOnG1144"><path id="ProcessOnPath1145" d="M286.48148148148147 643.9999999999998L365.62962962962973 643.9999999999998L365.62962962962973 584.4197530864196L429.5417098002782 584.4197530864196" stroke="#323232" stroke-width="2.0" stroke-dasharray="none" fill="none" marker-end="url(#ProcessOnMarker1146)"/></g><g id="ProcessOnG1148" transform="matrix(1.0,0.0,0.0,1.0,440.4814814814818,381.92226794695955)" opacity="1.0"><path id="ProcessOnPath1149" d="M0.0 0.0L100.0 0.0L100.0 70.0L0.0 70.0Z" stroke="#323232" stroke-width="2.0" stroke-dasharray="none" opacity="1.0" fill="#ffffff"/><g id="ProcessOnG1150" transform="matrix(1.0,0.0,0.0,1.0,10.0,10.625)"><text id="ProcessOnText1151" fill="#000000" font-size="13" x="39.0" y="13.325" font-family="微软雅黑" font-weight="normal" font-style="normal" text-decoration="none" family="微软雅黑" text-anchor="middle" size="13"></text><text id="ProcessOnText1152" fill="#000000" font-size="13" x="39.0" y="29.575" font-family="微软雅黑" font-weight="normal" font-style="normal" text-decoration="none" family="微软雅黑" text-anchor="middle" size="13">机械臂运动学</text><text id="ProcessOnText1153" fill="#000000" font-size="13" x="39.0" y="45.825" font-family="微软雅黑" font-weight="normal" font-style="normal" text-decoration="none" family="微软雅黑" text-anchor="middle" size="13">正解</text></g></g><g id="ProcessOnG1154"><path id="ProcessOnPath1155" d="M300.3703703703704 412.99725651577535L370.4259259259261 412.99725651577535L370.4259259259261 416.92226794695955L425.24541350398204 416.92226794695955" stroke="#323232" stroke-width="2.0" stroke-dasharray="none" fill="none" marker-end="url(#ProcessOnMarker1156)"/></g><g id="ProcessOnG1158"><path id="ProcessOnPath1159" d="M505.027777777778 546.3086419753084L505.027777777778 499.115454961134L490.4814814814818 499.115454961134L490.4814814814818 467.1583359244593" stroke="#323232" stroke-width="2.0" stroke-dasharray="none" fill="none" marker-end="url(#ProcessOnMarker1160)"/></g><g id="ProcessOnG1162"><path id="ProcessOnPath1163" d="M540.4814814814818 416.92226794695955L590.4074074074076 416.92226794695955L590.4074074074076 446.0000000000001L625.0972653558337 446.0000000000001" stroke="#323232" stroke-width="2.0" stroke-dasharray="none" fill="none" marker-end="url(#ProcessOnMarker1164)"/></g><g id="ProcessOnG1166"><path id="ProcessOnPath1167" d="M731.5 268.5L731.5 227.56250000000006L853.8750431336114 227.56250000000006" stroke="#323232" stroke-width="2.0" stroke-dasharray="none" fill="none" marker-end="url(#ProcessOnMarker1168)"/><g id="ProcessOnG1170" transform="matrix(1.0,0.0,0.0,1.0,772.2187715668057,219.43750000000006)"><path id="ProcessOnPath1171" d="M0 0H19.0V16.25H0Z" fill="#fff" transform="matrix(1.0,0.0,0.0,1.0,-9.5,0.0)"/><text id="ProcessOnText1172" fill="#000000" font-size="13" x="0.0" y="13.325" font-family="微软雅黑" font-weight="normal" font-style="normal" text-decoration="none" family="微软雅黑" text-anchor="middle" size="13">No</text></g></g><g id="ProcessOnG1173" transform="matrix(1.0,0.0,0.0,1.0,869.1111111111112,195.12500000000009)" opacity="1.0"><path id="ProcessOnPath1174" d="M119.074074074074 0.0L23.8148148148148 0.0L0.0 32.43749999999996L23.8148148148148 64.87499999999991L119.074074074074 64.87499999999991Q142.8888888888888 64.87499999999991 142.8888888888888 32.43749999999996Q142.8888888888888 0.0 119.074074074074 0.0Z" stroke="#323232" stroke-width="2.0" stroke-dasharray="none" opacity="1.0" fill="#ffcccc"/><g id="ProcessOnG1175" transform="matrix(1.0,0.0,0.0,1.0,10.0,16.187499999999957)"><text id="ProcessOnText1176" fill="#000000" font-size="13" x="60.4444444444444" y="13.325" font-family="微软雅黑" font-weight="normal" font-style="normal" text-decoration="none" family="微软雅黑" text-anchor="middle" size="13">错误提示：超出机械</text><text id="ProcessOnText1177" fill="#000000" font-size="13" x="60.4444444444444" y="29.575" font-family="微软雅黑" font-weight="normal" font-style="normal" text-decoration="none" family="微软雅黑" text-anchor="middle" size="13">臂工作空间</text></g></g><g id="ProcessOnG1178"><path id="ProcessOnPath1179" d="M1165.0000000000002 581.6666666666669L1199.0 581.6666666666669L1199.0 260.00000000000006L1217.7639320224998 260.00000000000006" stroke="#323232" stroke-width="2.0" stroke-dasharray="none" fill="none" marker-end="url(#ProcessOnMarker1180)"/></g><g id="ProcessOnG1182" transform="matrix(1.0,0.0,0.0,1.0,1229.777777777777,429.75582990397805)" opacity="1.0"><path id="ProcessOnPath1183" d="M0.0 0.0L100.0 0.0L100.0 70.0L0.0 70.0Z" stroke="#323232" stroke-width="2.0" stroke-dasharray="none" opacity="1.0" fill="#ffffff"/><g id="ProcessOnG1184" transform="matrix(1.0,0.0,0.0,1.0,10.0,18.75)"><text id="ProcessOnText1185" fill="#000000" font-size="13" x="39.0" y="13.325" font-family="微软雅黑" font-weight="normal" font-style="normal" text-decoration="none" family="微软雅黑" text-anchor="middle" size="13">进入下一个采</text><text id="ProcessOnText1186" fill="#000000" font-size="13" x="39.0" y="29.575" font-family="微软雅黑" font-weight="normal" font-style="normal" text-decoration="none" family="微软雅黑" text-anchor="middle" size="13">样点</text></g></g><g id="ProcessOnG1187"><path id="ProcessOnPath1188" d="M1229.777777777777 464.7558299039783L1126.3888888888885 464.7558299039783L1126.3888888888885 375.222222222222L1038.2360679775 375.222222222222" stroke="#323232" stroke-width="2.0" stroke-dasharray="none" fill="none" marker-end="url(#ProcessOnMarker1189)"/></g><g id="ProcessOnG1191"><path id="ProcessOnPath1192" d="M967.5000000000002 402.222222222222L967.5000000000002 470.74074074074065L898.8333333333337 470.74074074074065L898.8333333333337 524.0231912817595" stroke="#323232" stroke-width="2.0" stroke-dasharray="none" fill="none" marker-end="url(#ProcessOnMarker1193)"/></g><g id="ProcessOnG1195" transform="matrix(1.0,0.0,0.0,1.0,1657.333333333334,344.1666666666666)" opacity="1.0"><path id="ProcessOnPath1196" d="M0.0 0.0L111.99999999999909 0.0L111.99999999999909 71.66666666666663L0.0 71.66666666666663Z" stroke="#323232" stroke-width="2.0" stroke-dasharray="none" opacity="1.0" fill="#ffffff"/><g id="ProcessOnG1197" transform="matrix(1.0,0.0,0.0,1.0,10.0,11.458333333333314)"><text id="ProcessOnText1198" fill="#000000" font-size="13" x="44.999999999999545" y="13.325" font-family="微软雅黑" font-weight="normal" font-style="normal" text-decoration="none" family="微软雅黑" text-anchor="middle" size="13">在所有可用节</text><text id="ProcessOnText1199" fill="#000000" font-size="13" x="44.999999999999545" y="29.575" font-family="微软雅黑" font-weight="normal" font-style="normal" text-decoration="none" family="微软雅黑" text-anchor="middle" size="13">点选取最短的</text><text id="ProcessOnText1200" fill="#000000" font-size="13" x="44.999999999999545" y="45.825" font-family="微软雅黑" font-weight="normal" font-style="normal" text-decoration="none" family="微软雅黑" text-anchor="middle" size="13">一组路径点</text></g></g><g id="ProcessOnG1201" transform="matrix(1.0,0.0,0.0,1.0,1664.7407407407404,590.7283950617286)" opacity="1.0"><path id="ProcessOnPath1202" d="M0.0 0.0L100.0 0.0L100.0 70.0L0.0 70.0Z" stroke="#323232" stroke-width="2.0" stroke-dasharray="none" opacity="1.0" fill="#ffffff"/><g id="ProcessOnG1203" transform="matrix(1.0,0.0,0.0,1.0,10.0,10.625)"><text id="ProcessOnText1204" fill="#000000" font-size="13" x="39.0" y="13.325" font-family="微软雅黑" font-weight="normal" font-style="normal" text-decoration="none" family="微软雅黑" text-anchor="middle" size="13">得到自主避障</text><text id="ProcessOnText1205" fill="#000000" font-size="13" x="39.0" y="29.575" font-family="微软雅黑" font-weight="normal" font-style="normal" text-decoration="none" family="微软雅黑" text-anchor="middle" size="13">路径及对应的</text><text id="ProcessOnText1206" fill="#000000" font-size="13" x="39.0" y="45.825" font-family="微软雅黑" font-weight="normal" font-style="normal" text-decoration="none" family="微软雅黑" text-anchor="middle" size="13">一组关节角</text></g></g><g id="ProcessOnG1207" transform="matrix(1.0,0.0,0.0,1.0,1432.6913580246935,602.7146776406031)" opacity="1.0"><path id="ProcessOnPath1208" d="M16.666666666666668 0.0L83.33333333333333 0.0C105.55555555555556 0.0 105.55555555555556 50.0 83.33333333333333 50.0L16.666666666666668 50.0C-5.555555555555556 50.0 -5.555555555555556 0.0 16.666666666666668 0.0Z" stroke="#323232" stroke-width="2.0" stroke-dasharray="none" opacity="1.0" fill="#006633"/><g id="ProcessOnG1209" transform="matrix(1.0,0.0,0.0,1.0,10.0,16.875)"><text id="ProcessOnText1210" fill="#ffffff" font-size="13" x="39.0" y="13.325" font-family="微软雅黑" font-weight="normal" font-style="normal" text-decoration="none" family="微软雅黑" text-anchor="middle" size="13">结束</text></g></g><g id="ProcessOnG1211"><path id="ProcessOnPath1212" d="M1713.3333333333335 415.83333333333314L1713.3333333333335 441.89814814814804L1712.7613168724286 441.89814814814804L1712.7613168724286 452.72689498546316" stroke="#323232" stroke-width="2.0" stroke-dasharray="none" fill="none" marker-end="url(#ProcessOnMarker1213)"/></g><g id="ProcessOnG1215"><path id="ProcessOnPath1216" d="M1534.6666666666667 259.4272976680385L1554.1851851851857 259.4272976680385L1554.1851851851857 260.63111568358477L1558.467635726205 260.63111568358477" stroke="#323232" stroke-width="2.0" stroke-dasharray="none" fill="none" marker-end="url(#ProcessOnMarker1217)"/></g><g id="ProcessOnG1219" transform="matrix(1.0,0.0,0.0,1.0,1573.7037037037046,205.82556012802922)" opacity="1.0"><path id="ProcessOnPath1220" d="M0.0 54.80555555555554L58.0 0.0L116.0 54.80555555555554L58.0 109.61111111111109L0.0 54.80555555555554Z" stroke="#323232" stroke-width="2.0" stroke-dasharray="none" opacity="1.0" fill="#ffffff"/><g id="ProcessOnG1221" transform="matrix(1.0,0.0,0.0,1.0,10.0,30.430555555555543)"><text id="ProcessOnText1222" fill="#000000" font-size="13" x="47.0" y="13.325" font-family="微软雅黑" font-weight="normal" font-style="normal" text-decoration="none" family="微软雅黑" text-anchor="middle" size="13">N次采样迭代后</text><text id="ProcessOnText1223" fill="#000000" font-size="13" x="47.0" y="29.575" font-family="微软雅黑" font-weight="normal" font-style="normal" text-decoration="none" family="微软雅黑" text-anchor="middle" size="13">最终的路径点是</text><text id="ProcessOnText1224" fill="#000000" font-size="13" x="47.0" y="45.825" font-family="微软雅黑" font-weight="normal" font-style="normal" text-decoration="none" family="微软雅黑" text-anchor="middle" size="13">否达到终点位置</text></g></g><g id="ProcessOnG1225"><path id="ProcessOnPath1226" d="M1664.7407407407404 625.7283950617286L1598.7160493827168 625.7283950617286L1598.7160493827168 627.7146776406031L1547.9274260021932 627.7146776406031" stroke="#323232" stroke-width="2.0" stroke-dasharray="none" fill="none" marker-end="url(#ProcessOnMarker1227)"/></g><g id="ProcessOnG1229"><path id="ProcessOnPath1230" d="M169.38271604938274 138.00000000000003L169.38271604938274 176.33333333333337L172.99999999999994 176.33333333333337L172.99999999999994 199.43059868916689" stroke="#323232" stroke-width="2.0" stroke-dasharray="none" fill="none" marker-end="url(#ProcessOnMarker1231)"/></g><g id="ProcessOnG1233"><path id="ProcessOnPath1234" d="M1277.9999999999995 295.0L1277.9999999999995 362.37791495198906L1279.777777777777 362.37791495198906L1279.777777777777 414.5197619264783" stroke="#323232" stroke-width="2.0" stroke-dasharray="none" fill="none" marker-end="url(#ProcessOnMarker1235)"/><g id="ProcessOnG1237" transform="matrix(1.0,0.0,0.0,1.0,1277.9999999999995,347.5237698521278)"><path id="ProcessOnPath1238" d="M0 0H21.0V16.25H0Z" fill="#fff" transform="matrix(1.0,0.0,0.0,1.0,-10.5,0.0)"/><text id="ProcessOnText1239" fill="#000000" font-size="13" x="0.0" y="13.325" font-family="微软雅黑" font-weight="normal" font-style="normal" text-decoration="none" family="微软雅黑" text-anchor="middle" size="13">Yes</text></g></g><g id="ProcessOnG1240" transform="matrix(1.0,0.0,0.0,1.0,1651.7613168724286,467.96296296296293)" opacity="1.0"><path id="ProcessOnPath1241" d="M0.0 0.0L122.0 0.0L122.0 68.3333333333336L0.0 68.3333333333336Z" stroke="#323232" stroke-width="2.0" stroke-dasharray="none" opacity="1.0" fill="#ffffff"/><g id="ProcessOnG1242" transform="matrix(1.0,0.0,0.0,1.0,10.0,9.7916666666668)"><text id="ProcessOnText1243" fill="#000000" font-size="13" x="50.0" y="13.325" font-family="微软雅黑" font-weight="normal" font-style="normal" text-decoration="none" family="微软雅黑" text-anchor="middle" size="13">相邻路径点七个</text><text id="ProcessOnText1244" fill="#000000" font-size="13" x="50.0" y="29.575" font-family="微软雅黑" font-weight="normal" font-style="normal" text-decoration="none" family="微软雅黑" text-anchor="middle" size="13">关节角变化最小</text><text id="ProcessOnText1245" fill="#000000" font-size="13" x="50.0" y="45.825" font-family="微软雅黑" font-weight="normal" font-style="normal" text-decoration="none" family="微软雅黑" text-anchor="middle" size="13">的一组关节角</text></g></g><g id="ProcessOnG1246"><path id="ProcessOnPath1247" d="M1712.7613168724286 536.2962962962963L1712.7613168724286 563.5123456790125L1714.7407407407404 563.5123456790125L1714.7407407407404 575.4923270842288" stroke="#323232" stroke-width="2.0" stroke-dasharray="none" fill="none" marker-end="url(#ProcessOnMarker1248)"/></g><g id="ProcessOnG1250"><path id="ProcessOnPath1251" d="M1689.7037037037046 260.63111568358477L1713.3333333333335 260.63111568358477L1713.3333333333335 328.9305986891668" stroke="#323232" stroke-width="2.0" stroke-dasharray="none" fill="none" marker-end="url(#ProcessOnMarker1252)"/><g id="ProcessOnG1254" transform="matrix(1.0,0.0,0.0,1.0,1713.3333333333335,274.84104237156134)"><path id="ProcessOnPath1255" d="M0 0H21.0V16.25H0Z" fill="#fff" transform="matrix(1.0,0.0,0.0,1.0,-10.5,0.0)"/><text id="ProcessOnText1256" fill="#000000" font-size="13" x="0.0" y="13.325" font-family="微软雅黑" font-weight="normal" font-style="normal" text-decoration="none" family="微软雅黑" text-anchor="middle" size="13">Yes</text></g></g><g id="ProcessOnG1257"><path id="ProcessOnPath1258" d="M1631.7037037037046 315.4366712391403L1631.7037037037046 464.75582990397805L1345.0138457552766 464.75582990397805" stroke="#323232" stroke-width="2.0" stroke-dasharray="none" fill="none" marker-end="url(#ProcessOnMarker1259)"/><g id="ProcessOnG1261" transform="matrix(1.0,0.0,0.0,1.0,1563.0183540619096,456.63082990397805)"><path id="ProcessOnPath1262" d="M0 0H19.0V16.25H0Z" fill="#fff" transform="matrix(1.0,0.0,0.0,1.0,-9.5,0.0)"/><text id="ProcessOnText1263" fill="#000000" font-size="13" x="0.0" y="13.325" font-family="微软雅黑" font-weight="normal" font-style="normal" text-decoration="none" family="微软雅黑" text-anchor="middle" size="13">No</text></g></g><g id="ProcessOnG1264"><path id="ProcessOnPath1265" d="M1322.9999999999995 260.0L1354.5 260.0L1354.5 259.4272976680384L1370.7639320225007 259.4272976680384" stroke="#323232" stroke-width="2.0" stroke-dasharray="none" fill="none" marker-end="url(#ProcessOnMarker1266)"/><g id="ProcessOnG1268" transform="matrix(1.0,0.0,0.0,1.0,1347.1683171772308,251.875)"><path id="ProcessOnPath1269" d="M0 0H19.0V16.25H0Z" fill="#fff" transform="matrix(1.0,0.0,0.0,1.0,-9.5,0.0)"/><text id="ProcessOnText1270" fill="#000000" font-size="13" x="0.0" y="13.325" font-family="微软雅黑" font-weight="normal" font-style="normal" text-decoration="none" family="微软雅黑" text-anchor="middle" size="13">No</text></g></g></g></g></svg>