<svg xmlns="http://www.w3.org/2000/svg" xmlns:xlink="http://www.w3.org/1999/xlink" id="processonSvg1000" viewBox="77.0 122.33332824707031 916.0 554.5000152587891" width="916.0" height="554.5000152587891"><defs id="ProcessOnDefs1001"><marker id="ProcessOnMarker1017" markerUnits="userSpaceOnUse" orient="auto" markerWidth="16.23606797749979" markerHeight="10.550836550532098" viewBox="-1.0 -1.3763819204711736 16.23606797749979 10.550836550532098" refX="15.23606797749979" refY="3.8990363547948754"><path id="ProcessOnPath1018" d="M12.0 3.8990363547948754L0.0 7.798072709589751V0.0Z" stroke="#ff0080" stroke-width="2.0" fill="#ff0080" transform="matrix(-1.0,1.2246467991473532E-16,-1.2246467991473532E-16,-1.0,14.23606797749979,7.798072709589751)"/></marker><marker id="ProcessOnMarker1019" markerUnits="userSpaceOnUse" orient="auto" markerWidth="16.23606797749979" markerHeight="10.550836550532098" viewBox="-1.0 -1.3763819204711736 16.23606797749979 10.550836550532098" refX="-1.0" refY="3.8990363547948754"><path id="ProcessOnPath1020" d="M12.0 3.8990363547948754L0.0 7.798072709589751V0.0Z" stroke="#ff0080" stroke-width="2.0" fill="#ff0080" transform="matrix(1.0,0.0,0.0,1.0,0.0,0.0)"/></marker><marker id="ProcessOnMarker1030" markerUnits="userSpaceOnUse" orient="auto" markerWidth="16.23606797749979" markerHeight="10.550836550532098" viewBox="-1.0 -1.3763819204711736 16.23606797749979 10.550836550532098" refX="-1.0" refY="3.8990363547948754"><path id="ProcessOnPath1031" d="M12.0 3.8990363547948754L0.0 7.798072709589751V0.0Z" stroke="#323232" stroke-width="2.0" fill="#323232" transform="matrix(1.0,0.0,0.0,1.0,0.0,0.0)"/></marker><marker id="ProcessOnMarker1068" markerUnits="userSpaceOnUse" orient="auto" markerWidth="16.23606797749979" markerHeight="10.550836550532098" viewBox="-1.0 -1.3763819204711736 16.23606797749979 10.550836550532098" refX="15.23606797749979" refY="3.8990363547948754"><path id="ProcessOnPath1069" d="M12.0 3.8990363547948754L0.0 7.798072709589751V0.0Z" stroke="#323232" stroke-width="2.0" fill="#323232" transform="matrix(-1.0,1.2246467991473532E-16,-1.2246467991473532E-16,-1.0,14.23606797749979,7.798072709589751)"/></marker><marker id="ProcessOnMarker1070" markerUnits="userSpaceOnUse" orient="auto" markerWidth="16.23606797749979" markerHeight="10.550836550532098" viewBox="-1.0 -1.3763819204711736 16.23606797749979 10.550836550532098" refX="-1.0" refY="3.8990363547948754"><path id="ProcessOnPath1071" d="M12.0 3.8990363547948754L0.0 7.798072709589751V0.0Z" stroke="#323232" stroke-width="2.0" fill="#323232" transform="matrix(1.0,0.0,0.0,1.0,0.0,0.0)"/></marker><marker id="ProcessOnMarker1074" markerUnits="userSpaceOnUse" orient="auto" markerWidth="16.23606797749979" markerHeight="10.550836550532098" viewBox="-1.0 -1.3763819204711736 16.23606797749979 10.550836550532098" refX="-1.0" refY="3.8990363547948754"><path id="ProcessOnPath1075" d="M12.0 3.8990363547948754L0.0 7.798072709589751V0.0Z" stroke="#323232" stroke-width="2.0" fill="#323232" transform="matrix(1.0,0.0,0.0,1.0,0.0,0.0)"/></marker><marker id="ProcessOnMarker1086" markerUnits="userSpaceOnUse" orient="auto" markerWidth="16.23606797749979" markerHeight="10.550836550532098" viewBox="-1.0 -1.3763819204711736 16.23606797749979 10.550836550532098" refX="15.23606797749979" refY="3.8990363547948754"><path id="ProcessOnPath1087" d="M12.0 3.8990363547948754L0.0 7.798072709589751V0.0Z" stroke="#0000cc" stroke-width="2.0" fill="#0000cc" transform="matrix(-1.0,1.2246467991473532E-16,-1.2246467991473532E-16,-1.0,14.23606797749979,7.798072709589751)"/></marker><marker id="ProcessOnMarker1088" markerUnits="userSpaceOnUse" orient="auto" markerWidth="16.23606797749979" markerHeight="10.550836550532098" viewBox="-1.0 -1.3763819204711736 16.23606797749979 10.550836550532098" refX="-1.0" refY="3.8990363547948754"><path id="ProcessOnPath1089" d="M12.0 3.8990363547948754L0.0 7.798072709589751V0.0Z" stroke="#0000cc" stroke-width="2.0" fill="#0000cc" transform="matrix(1.0,0.0,0.0,1.0,0.0,0.0)"/></marker><marker id="ProcessOnMarker1101" markerUnits="userSpaceOnUse" orient="auto" markerWidth="16.23606797749979" markerHeight="10.550836550532098" viewBox="-1.0 -1.3763819204711736 16.23606797749979 10.550836550532098" refX="15.23606797749979" refY="3.8990363547948754"><path id="ProcessOnPath1102" d="M12.0 3.8990363547948754L0.0 7.798072709589751V0.0Z" stroke="#323232" stroke-width="2.0" fill="#323232" transform="matrix(-1.0,1.2246467991473532E-16,-1.2246467991473532E-16,-1.0,14.23606797749979,7.798072709589751)"/></marker><marker id="ProcessOnMarker1103" markerUnits="userSpaceOnUse" orient="auto" markerWidth="16.23606797749979" markerHeight="10.550836550532098" viewBox="-1.0 -1.3763819204711736 16.23606797749979 10.550836550532098" refX="-1.0" refY="3.8990363547948754"><path id="ProcessOnPath1104" d="M12.0 3.8990363547948754L0.0 7.798072709589751V0.0Z" stroke="#323232" stroke-width="2.0" fill="#323232" transform="matrix(1.0,0.0,0.0,1.0,0.0,0.0)"/></marker><marker id="ProcessOnMarker1110" markerUnits="userSpaceOnUse" orient="auto" markerWidth="16.23606797749979" markerHeight="10.550836550532098" viewBox="-1.0 -1.3763819204711736 16.23606797749979 10.550836550532098" refX="-1.0" refY="3.8990363547948754"><path id="ProcessOnPath1111" d="M12.0 3.8990363547948754L0.0 7.798072709589751V0.0Z" stroke="#323232" stroke-width="2.0" fill="#323232" transform="matrix(1.0,0.0,0.0,1.0,0.0,0.0)"/></marker><marker id="ProcessOnMarker1122" markerUnits="userSpaceOnUse" orient="auto" markerWidth="16.23606797749979" markerHeight="10.550836550532098" viewBox="-1.0 -1.3763819204711736 16.23606797749979 10.550836550532098" refX="15.23606797749979" refY="3.8990363547948754"><path id="ProcessOnPath1123" d="M12.0 3.8990363547948754L0.0 7.798072709589751V0.0Z" stroke="#323232" stroke-width="2.0" fill="#323232" transform="matrix(-1.0,1.2246467991473532E-16,-1.2246467991473532E-16,-1.0,14.23606797749979,7.798072709589751)"/></marker><marker id="ProcessOnMarker1124" markerUnits="userSpaceOnUse" orient="auto" markerWidth="16.23606797749979" markerHeight="10.550836550532098" viewBox="-1.0 -1.3763819204711736 16.23606797749979 10.550836550532098" refX="-1.0" refY="3.8990363547948754"><path id="ProcessOnPath1125" d="M12.0 3.8990363547948754L0.0 7.798072709589751V0.0Z" stroke="#323232" stroke-width="2.0" fill="#323232" transform="matrix(1.0,0.0,0.0,1.0,0.0,0.0)"/></marker><marker id="ProcessOnMarker1131" markerUnits="userSpaceOnUse" orient="auto" markerWidth="16.23606797749979" markerHeight="10.550836550532098" viewBox="-1.0 -1.3763819204711736 16.23606797749979 10.550836550532098" refX="15.23606797749979" refY="3.8990363547948754"><path id="ProcessOnPath1132" d="M12.0 3.8990363547948754L0.0 7.798072709589751V0.0Z" stroke="#323232" stroke-width="2.0" fill="#323232" transform="matrix(-1.0,1.2246467991473532E-16,-1.2246467991473532E-16,-1.0,14.23606797749979,7.798072709589751)"/></marker><marker id="ProcessOnMarker1133" markerUnits="userSpaceOnUse" orient="auto" markerWidth="16.23606797749979" markerHeight="10.550836550532098" viewBox="-1.0 -1.3763819204711736 16.23606797749979 10.550836550532098" refX="-1.0" refY="3.8990363547948754"><path id="ProcessOnPath1134" d="M12.0 3.8990363547948754L0.0 7.798072709589751V0.0Z" stroke="#323232" stroke-width="2.0" fill="#323232" transform="matrix(1.0,0.0,0.0,1.0,0.0,0.0)"/></marker><marker id="ProcessOnMarker1163" markerUnits="userSpaceOnUse" orient="auto" markerWidth="16.23606797749979" markerHeight="10.550836550532098" viewBox="-1.0 -1.3763819204711736 16.23606797749979 10.550836550532098" refX="15.23606797749979" refY="3.8990363547948754"><path id="ProcessOnPath1164" d="M12.0 3.8990363547948754L0.0 7.798072709589751V0.0Z" stroke="#006633" stroke-width="2.0" fill="#006633" transform="matrix(-1.0,1.2246467991473532E-16,-1.2246467991473532E-16,-1.0,14.23606797749979,7.798072709589751)"/></marker></defs><g id="ProcessOnG1002"><path id="ProcessOnPath1003" d="M77.0 122.33332824707031H993.0V676.8333435058594H77.0V122.33332824707031Z" fill="none"/><g id="ProcessOnG1004"><g id="ProcessOnG1005" transform="matrix(1.0,0.0,0.0,1.0,186.0,221.0)" opacity="1.0"><path id="ProcessOnPath1006" d="M0.0 4.0Q0.0 0.0 4.0 0.0L642.0 0.0Q646.0 0.0 646.0 4.0L646.0 129.0Q646.0 133.0 642.0 133.0L4.0 133.0Q0.0 133.0 0.0 129.0Z" stroke="#323232" stroke-width="2.0" stroke-dasharray="none" opacity="1.0" fill="#ccccff"/></g><g id="ProcessOnG1007" transform="matrix(1.0,0.0,0.0,1.0,233.0,462.0)" opacity="1.0"><path id="ProcessOnPath1008" d="M18.2 0.0L182.0 0.0L182.0 79.0L18.2 79.0L18.2 63.2L0.0 63.2L0.0 47.4L18.2 47.4L18.2 31.6L0.0 31.6L0.0 15.8L18.2 15.8L18.2 0.0Z" stroke="#323232" stroke-width="2.0" stroke-dasharray="none" opacity="1.0" fill="#ccffff"/><path id="ProcessOnPath1009" d="M18.2 63.2L36.4 63.2L36.4 47.4L18.2 47.4M18.2 31.6L36.4 31.6L36.4 15.8L18.2 15.8" stroke="#323232" stroke-width="2.0" stroke-dasharray="none" opacity="1.0" fill="none"/><path id="ProcessOnPath1010" d="M18.2 0.0L182.0 0.0L182.0 79.0L18.2 79.0L18.2 63.2L0.0 63.2L0.0 47.4L18.2 47.4L18.2 31.6L0.0 31.6L0.0 15.8L18.2 15.8L18.2 0.0Z" stroke="none" stroke-width="0.0" stroke-dasharray="none" opacity="1.0" fill="none"/><g id="ProcessOnG1011" transform="matrix(1.0,0.0,0.0,1.0,27.75,15.125)"><text id="ProcessOnText1012" fill="#000000" font-size="13" x="73.625" y="13.325" font-family="微软雅黑" font-weight="bold" font-style="normal" text-decoration="none" family="微软雅黑" text-anchor="middle" size="13">中央控制器</text><text id="ProcessOnText1013" fill="#000000" font-size="13" x="73.625" y="29.575" font-family="微软雅黑" font-weight="bold" font-style="normal" text-decoration="none" family="微软雅黑" text-anchor="middle" size="13"></text><text id="ProcessOnText1014" fill="#000000" font-size="13" x="73.625" y="45.825" font-family="微软雅黑" font-weight="bold" font-style="normal" text-decoration="none" family="微软雅黑" text-anchor="middle" size="13"></text></g></g><g id="ProcessOnG1015"><path id="ProcessOnPath1016" d="M437.6435843387835 367.8445423503243C449.0 403.33333587646484 324.0 400.4345002669637 324.0 446.7639320225002" stroke="#ff0080" stroke-width="2.0" stroke-dasharray="none" fill="none" marker-start="url(#ProcessOnMarker1017)" marker-end="url(#ProcessOnMarker1019)"/><g id="ProcessOnG1021" transform="matrix(1.0,0.0,0.0,1.0,385.08044804234794,393.2389978503888)"><path id="ProcessOnPath1022" d="M0 0H100.0V20.0H0Z" fill="#fff" transform="matrix(1.0,0.0,0.0,1.0,-50.0,0.0)"/><text id="ProcessOnText1023" fill="#ff3399" font-size="16" x="0.0" y="16.4" font-family="微软雅黑" font-weight="normal" font-style="normal" text-decoration="none" family="微软雅黑" text-anchor="middle" size="16">串口或TCP/IP</text></g></g><g id="ProcessOnG1024" transform="matrix(1.0,0.0,0.0,1.0,188.5,142.3333282470703)" opacity="1.0"><path id="ProcessOnPath1025" d="M0.0 0.0L226.5 0.0L226.5 50.0L0.0 50.0Z" stroke="#323232" stroke-width="2.0" stroke-dasharray="2.0 3.0" opacity="1.0" fill="#cce5ff"/><g id="ProcessOnG1026" transform="matrix(1.0,0.0,0.0,1.0,10.0,16.875)"><text id="ProcessOnText1027" fill="#000000" font-size="13" x="102.25" y="13.325" font-family="微软雅黑" font-weight="bold" font-style="normal" text-decoration="none" family="微软雅黑" text-anchor="middle" size="13">深度相机  Intel realsense SR300</text></g></g><g id="ProcessOnG1028"><path id="ProcessOnPath1029" d="M301.75 192.3333282470703C301.75 222.18364188865326 285.7 234.13333129882812 280.46144771933467 247.77641549313364" stroke="#323232" stroke-width="2.0" stroke-dasharray="none" fill="none" marker-end="url(#ProcessOnMarker1030)"/><g id="ProcessOnG1032" transform="matrix(1.0,0.0,0.0,1.0,293.0701809649168,218.00758291283103)"><path id="ProcessOnPath1033" d="M0 0H52.0V16.25H0Z" fill="#fff" transform="matrix(1.0,0.0,0.0,1.0,-26.0,0.0)"/><text id="ProcessOnText1034" fill="#000000" font-size="13" x="0.0" y="13.325" font-family="微软雅黑" font-weight="normal" font-style="normal" text-decoration="none" family="微软雅黑" text-anchor="middle" size="13">相机驱动</text></g></g><g id="ProcessOnG1035" transform="matrix(1.0,0.0,0.0,1.0,233.0,261.0)" opacity="1.0"><path id="ProcessOnPath1036" d="M0.0 0.0L104.0 0.0L104.0 47.0L0.0 47.0Z" stroke="#323232" stroke-width="2.0" stroke-dasharray="none" opacity="1.0" fill="#ffffff"/><g id="ProcessOnG1037" transform="matrix(1.0,0.0,0.0,1.0,10.0,7.25)"><text id="ProcessOnText1038" fill="#000000" font-size="13" x="41.0" y="13.325" font-family="微软雅黑" font-weight="normal" font-style="normal" text-decoration="none" family="微软雅黑" text-anchor="middle" size="13">视觉算法Cma</text><text id="ProcessOnText1039" fill="#000000" font-size="13" x="41.0" y="29.575" font-family="微软雅黑" font-weight="normal" font-style="normal" text-decoration="none" family="微软雅黑" text-anchor="middle" size="13">ke</text></g></g><g id="ProcessOnG1040" transform="matrix(1.0,0.0,0.0,1.0,233.0,308.0)" opacity="1.0"><path id="ProcessOnPath1041" d="M0.0 0.0L104.0 0.0L104.0 35.0L0.0 35.0Z" stroke="#323232" stroke-width="2.0" stroke-dasharray="none" opacity="1.0" fill="#ffffff"/><g id="ProcessOnG1042" transform="matrix(1.0,0.0,0.0,1.0,10.0,9.375)"><text id="ProcessOnText1043" fill="#000000" font-size="13" x="41.0" y="13.325" font-family="微软雅黑" font-weight="normal" font-style="normal" text-decoration="none" family="微软雅黑" text-anchor="middle" size="13">Opencv, PCL</text></g></g><g id="ProcessOnG1044" transform="matrix(1.0,0.0,0.0,1.0,446.0,260.0)" opacity="1.0"><path id="ProcessOnPath1045" d="M0.0 0.0L147.0 0.0L147.0 46.99999999999999L0.0 46.99999999999999Z" stroke="#323232" stroke-width="2.0" stroke-dasharray="10.0 4.0" opacity="1.0" fill="#ccffe6"/><g id="ProcessOnG1046" transform="matrix(1.0,0.0,0.0,1.0,10.0,7.2499999999999964)"><text id="ProcessOnText1047" fill="#000000" font-size="13" x="62.5" y="13.325" font-family="微软雅黑" font-weight="normal" font-style="normal" text-decoration="none" family="微软雅黑" text-anchor="middle" size="13">运动控制算法</text><text id="ProcessOnText1048" fill="#000000" font-size="13" x="62.5" y="29.575" font-family="微软雅黑" font-weight="normal" font-style="normal" text-decoration="none" family="微软雅黑" text-anchor="middle" size="13">Matlab</text></g></g><g id="ProcessOnG1049" transform="matrix(1.0,0.0,0.0,1.0,446.0,307.0)" opacity="1.0"><path id="ProcessOnPath1050" d="M0.0 0.0L147.0 0.0L147.0 35.0L0.0 35.0Z" stroke="#323232" stroke-width="2.0" stroke-dasharray="10.0 4.0" opacity="1.0" fill="#ccffe6"/><g id="ProcessOnG1051" transform="matrix(1.0,0.0,0.0,1.0,10.0,9.375)"><text id="ProcessOnText1052" fill="#000000" font-size="13" x="62.5" y="13.325" font-family="微软雅黑" font-weight="normal" font-style="normal" text-decoration="none" family="微软雅黑" text-anchor="middle" size="13">Simulink</text></g></g><g id="ProcessOnG1053" transform="matrix(1.0,0.0,0.0,1.0,705.0,260.0)" opacity="1.0"><path id="ProcessOnPath1054" d="M0.0 0.0L104.0 0.0L104.0 47.0L0.0 47.0Z" stroke="#323232" stroke-width="2.0" stroke-dasharray="none" opacity="1.0" fill="#ffffff"/><g id="ProcessOnG1055" transform="matrix(1.0,0.0,0.0,1.0,10.0,7.25)"><text id="ProcessOnText1056" fill="#000000" font-size="13" x="41.0" y="13.325" font-family="微软雅黑" font-weight="normal" font-style="normal" text-decoration="none" family="微软雅黑" text-anchor="middle" size="13">UI界面</text><text id="ProcessOnText1057" fill="#000000" font-size="13" x="41.0" y="29.575" font-family="微软雅黑" font-weight="normal" font-style="normal" text-decoration="none" family="微软雅黑" text-anchor="middle" size="13">LabVIEW</text></g></g><g id="ProcessOnG1058" transform="matrix(1.0,0.0,0.0,1.0,704.5,307.0)" opacity="1.0"><path id="ProcessOnPath1059" d="M0.0 0.0L104.0 0.0L104.0 35.0L0.0 35.0Z" stroke="#323232" stroke-width="2.0" stroke-dasharray="none" opacity="1.0" fill="#ffffff"/><g id="ProcessOnG1060" transform="matrix(1.0,0.0,0.0,1.0,10.0,9.375)"><text id="ProcessOnText1061" fill="#000000" font-size="13" x="41.0" y="13.325" font-family="微软雅黑" font-weight="normal" font-style="normal" text-decoration="none" family="微软雅黑" text-anchor="middle" size="13">NI VeriStand</text></g></g><g id="ProcessOnG1062" transform="matrix(1.0,0.0,0.0,1.0,430.0,221.0)" opacity="1.0"><path id="ProcessOnPath1063" d="M0.0 0.0L179.0 0.0L179.0 34.0L0.0 34.0Z" stroke="none" stroke-width="0.0" stroke-dasharray="none" opacity="1.0" fill="none"/><g id="ProcessOnG1064" transform="matrix(1.0,0.0,0.0,1.0,0.0,6.375)"><text id="ProcessOnText1065" fill="#7f00ff" font-size="17" x="88.5" y="17.425" font-family="微软雅黑" font-weight="bold" font-style="normal" text-decoration="none" family="微软雅黑" text-anchor="middle" size="17">上位机  Ubuntu 64位</text></g></g><g id="ProcessOnG1066"><path id="ProcessOnPath1067" d="M689.2639320225002 324.5L608.2360679774998 324.5" stroke="#323232" stroke-width="2.0" stroke-dasharray="none" fill="none" marker-start="url(#ProcessOnMarker1068)" marker-end="url(#ProcessOnMarker1070)"/></g><g id="ProcessOnG1072"><path id="ProcessOnPath1073" d="M337.0 325.5L430.7645731767066 324.6397745580119" stroke="#323232" stroke-width="2.0" stroke-dasharray="none" fill="none" marker-end="url(#ProcessOnMarker1074)"/><g id="ProcessOnG1076" transform="matrix(1.0,0.0,0.0,1.0,383.8822865883533,308.8198872790059)"><path id="ProcessOnPath1077" d="M0 0H52.0V32.5H0Z" fill="#fff" transform="matrix(1.0,0.0,0.0,1.0,-26.0,0.0)"/><text id="ProcessOnText1078" fill="#000000" font-size="13" x="0.0" y="13.325" font-family="微软雅黑" font-weight="normal" font-style="normal" text-decoration="none" family="微软雅黑" text-anchor="middle" size="13">读取.pcd</text><text id="ProcessOnText1079" fill="#000000" font-size="13" x="0.0" y="29.575" font-family="微软雅黑" font-weight="normal" font-style="normal" text-decoration="none" family="微软雅黑" text-anchor="middle" size="13">数据文件</text></g></g><g id="ProcessOnG1080" transform="matrix(1.0,0.0,0.0,1.0,689.0,462.5)" opacity="1.0"><path id="ProcessOnPath1081" d="M0.0 0.0L135.0 0.0L135.0 78.0L0.0 78.0Z" stroke="#323232" stroke-width="2.0" stroke-dasharray="none" opacity="1.0" fill="#cfcfcf"/><g id="ProcessOnG1082" transform="matrix(1.0,0.0,0.0,1.0,10.0,30.875)"><text id="ProcessOnText1083" fill="#000000" font-size="13" x="56.5" y="13.325" font-family="微软雅黑" font-weight="normal" font-style="normal" text-decoration="none" family="微软雅黑" text-anchor="middle" size="13">固高6轴机械臂</text></g></g><g id="ProcessOnG1084"><path id="ProcessOnPath1085" d="M430.2360679774998 501.5C524.6 501.5 579.4 501.5 673.7639320225002 501.5" stroke="#0000cc" stroke-width="2.0" stroke-dasharray="none" fill="none" marker-start="url(#ProcessOnMarker1086)" marker-end="url(#ProcessOnMarker1088)"/><g id="ProcessOnG1090" transform="matrix(1.0,0.0,0.0,1.0,552.0,489.0)"><path id="ProcessOnPath1091" d="M0 0H83.0V25.0H0Z" fill="#fff" transform="matrix(1.0,0.0,0.0,1.0,-41.5,0.0)"/><text id="ProcessOnText1092" fill="#0000ff" font-size="20" x="0.0" y="20.5" font-family="微软雅黑" font-weight="normal" font-style="normal" text-decoration="none" family="微软雅黑" text-anchor="middle" size="20">CAN通信</text></g></g><g id="ProcessOnG1093" transform="matrix(1.0,0.0,0.0,1.0,406.0,424.3333320617676)" opacity="1.0"><path id="ProcessOnPath1094" d="M0.0 0.0L117.0 0.0L117.0 29.666667938232422L0.0 29.666667938232422Z" stroke="none" stroke-width="0.0" stroke-dasharray="none" opacity="1.0" fill="none"/></g><g id="ProcessOnG1095" transform="matrix(1.0,0.0,0.0,1.0,292.0,500.0)" opacity="1.0"><path id="ProcessOnPath1096" d="M0.0 0.0L86.0 0.0L86.0 30.0L0.0 30.0Z" stroke="#323232" stroke-width="2.0" stroke-dasharray="none" opacity="1.0" fill="#ffffff"/><g id="ProcessOnG1097" transform="matrix(1.0,0.0,0.0,1.0,10.0,6.875)"><text id="ProcessOnText1098" fill="#000000" font-size="13" x="32.0" y="13.325" font-family="微软雅黑" font-weight="normal" font-style="normal" text-decoration="none" family="微软雅黑" text-anchor="middle" size="13">DSP芯片</text></g></g><g id="ProcessOnG1099"><path id="ProcessOnPath1100" d="M347.37797062328747 273.3449341930593C406.0 210.3333282470703 567.0 149.3333282470703 694.0758168786577 272.8792660071737" stroke="#323232" stroke-width="2.0" stroke-dasharray="2.0 3.0" fill="none" marker-start="url(#ProcessOnMarker1101)" marker-end="url(#ProcessOnMarker1103)"/><g id="ProcessOnG1105" transform="matrix(1.0,0.0,0.0,1.0,495.05672343774313,195.02802121033187)"><path id="ProcessOnPath1106" d="M0 0H52.0V16.25H0Z" fill="#fff" transform="matrix(1.0,0.0,0.0,1.0,-26.0,0.0)"/><text id="ProcessOnText1107" fill="#000000" font-size="13" x="0.0" y="13.325" font-family="微软雅黑" font-weight="normal" font-style="normal" text-decoration="none" family="微软雅黑" text-anchor="middle" size="13">启停相机</text></g></g><g id="ProcessOnG1108"><path id="ProcessOnPath1109" d="M725.0 192.3333282470703C725.0 222.27401218346358 757.0 230.05931606360673 757.0 244.7639320225002" stroke="#323232" stroke-width="2.0" stroke-dasharray="none" fill="none" marker-end="url(#ProcessOnMarker1110)"/></g><g id="ProcessOnG1112" transform="matrix(1.0,0.0,0.0,1.0,475.0,586.8333435058594)" opacity="1.0"><path id="ProcessOnPath1113" d="M0.0 0.0L100.0 0.0L100.0 70.0L0.0 70.0Z" stroke="#323232" stroke-width="2.0" stroke-dasharray="none" opacity="1.0" fill="#ccffcc"/><g id="ProcessOnG1114" transform="matrix(1.0,0.0,0.0,1.0,10.0,26.875)"><text id="ProcessOnText1115" fill="#000000" font-size="13" x="39.0" y="13.325" font-family="微软雅黑" font-weight="normal" font-style="normal" text-decoration="none" family="微软雅黑" text-anchor="middle" size="13">CB</text></g></g><g id="ProcessOnG1116" transform="matrix(1.0,0.0,0.0,1.0,693.5,589.3333435058594)" opacity="1.0"><path id="ProcessOnPath1117" d="M0.0 0.0L107.0 0.0L107.0 65.0L0.0 65.0Z" stroke="#323232" stroke-width="2.0" stroke-dasharray="none" opacity="1.0" fill="#e5e5e5"/><g id="ProcessOnG1118" transform="matrix(1.0,0.0,0.0,1.0,10.0,24.375)"><text id="ProcessOnText1119" fill="#000000" font-size="13" x="42.5" y="13.325" font-family="微软雅黑" font-weight="normal" font-style="normal" text-decoration="none" family="微软雅黑" text-anchor="middle" size="13">仿生机械手</text></g></g><g id="ProcessOnG1120"><path id="ProcessOnPath1121" d="M324.0 556.2360679774998C324.0 609.5098876628316 406.4901123371684 621.8333435058594 459.7639320225002 621.8333435058594" stroke="#323232" stroke-width="2.0" stroke-dasharray="none" fill="none" marker-start="url(#ProcessOnMarker1122)" marker-end="url(#ProcessOnMarker1124)"/><g id="ProcessOnG1126" transform="matrix(1.0,0.0,0.0,1.0,371.9042836292507,600.887388123679)"><path id="ProcessOnPath1127" d="M0 0H40.0V16.25H0Z" fill="#fff" transform="matrix(1.0,0.0,0.0,1.0,-20.0,0.0)"/><text id="ProcessOnText1128" fill="#000000" font-size="13" x="0.0" y="13.325" font-family="微软雅黑" font-weight="normal" font-style="normal" text-decoration="none" family="微软雅黑" text-anchor="middle" size="13">RS485</text></g></g><g id="ProcessOnG1129"><path id="ProcessOnPath1130" d="M590.2360679774998 621.8333435058594C622.4 621.8333435058594 646.1 621.8333435058594 678.2639320225002 621.8333435058594" stroke="#323232" stroke-width="2.0" stroke-dasharray="none" fill="none" marker-start="url(#ProcessOnMarker1131)" marker-end="url(#ProcessOnMarker1133)"/><g id="ProcessOnG1135" transform="matrix(1.0,0.0,0.0,1.0,634.2499999999999,613.7083435058594)"><path id="ProcessOnPath1136" d="M0 0H40.0V16.25H0Z" fill="#fff" transform="matrix(1.0,0.0,0.0,1.0,-20.0,0.0)"/><text id="ProcessOnText1137" fill="#000000" font-size="13" x="0.0" y="13.325" font-family="微软雅黑" font-weight="normal" font-style="normal" text-decoration="none" family="微软雅黑" text-anchor="middle" size="13">RS485</text></g></g><g id="ProcessOnG1138" transform="matrix(1.0,0.0,0.0,1.0,838.0,217.0)" opacity="1.0"><path id="ProcessOnPath1139" d="M18.0 0.0Q9.0 0.0 9.0 9.0L9.0 64.66666793823242Q9.0 73.66666793823242 0.0 73.66666793823242Q9.0 73.66666793823242 9.0 82.66666793823242L9.0 138.33333587646484Q9.0 147.33333587646484 18.0 147.33333587646484" stroke="#323232" stroke-width="2.0" stroke-dasharray="none" opacity="1.0" fill="none"/><path id="ProcessOnPath1140" d="M117.0 147.33333587646484Q126.0 147.33333587646484 126.0 138.33333587646484L126.0 82.66666793823242Q126.0 73.66666793823242 135.0 73.66666793823242Q126.0 73.66666793823242 126.0 64.66666793823242L126.0 9.0Q126.0 0.0 117.0 0.0" stroke="#323232" stroke-width="2.0" stroke-dasharray="none" opacity="1.0" fill="none"/><path id="ProcessOnPath1141" d="M0.0 0.0L135.0 0.0L135.0 147.33333587646484L0.0 147.33333587646484Z" stroke="none" stroke-width="0.0" stroke-dasharray="none" opacity="1.0" fill="none"/><g id="ProcessOnG1142" transform="matrix(1.0,0.0,0.0,1.0,10.0,8.666667938232422)"><text id="ProcessOnText1143" fill="#000000" font-size="13" x="0.0" y="13.325" font-family="微软雅黑" font-weight="normal" font-style="normal" text-decoration="none" family="微软雅黑" text-anchor="start" size="13">1.相机启停/状态</text><text id="ProcessOnText1144" fill="#000000" font-size="13" x="0.0" y="29.575" font-family="微软雅黑" font-weight="normal" font-style="normal" text-decoration="none" family="微软雅黑" text-anchor="start" size="13">2.三维环境显示</text><text id="ProcessOnText1145" fill="#000000" font-size="13" x="0.0" y="45.825" font-family="微软雅黑" font-weight="normal" font-style="normal" text-decoration="none" family="微软雅黑" text-anchor="start" size="13">3.机械臂运行仿真</text><text id="ProcessOnText1146" fill="#000000" font-size="13" x="0.0" y="62.075" font-family="微软雅黑" font-weight="normal" font-style="normal" text-decoration="none" family="微软雅黑" text-anchor="start" size="13">4.机械臂实时状态</text><text id="ProcessOnText1147" fill="#000000" font-size="13" x="0.0" y="78.325" font-family="微软雅黑" font-weight="normal" font-style="normal" text-decoration="none" family="微软雅黑" text-anchor="start" size="13">5.机械手运行仿真</text><text id="ProcessOnText1148" fill="#000000" font-size="13" x="0.0" y="94.575" font-family="微软雅黑" font-weight="normal" font-style="normal" text-decoration="none" family="微软雅黑" text-anchor="start" size="13">6.机械手实时状态</text><text id="ProcessOnText1149" fill="#000000" font-size="13" x="0.0" y="110.825" font-family="微软雅黑" font-weight="normal" font-style="normal" text-decoration="none" family="微软雅黑" text-anchor="start" size="13">7.错误显示</text><text id="ProcessOnText1150" fill="#000000" font-size="13" x="0.0" y="127.075" font-family="微软雅黑" font-weight="normal" font-style="normal" text-decoration="none" family="微软雅黑" text-anchor="start" size="13">8.紧急停止</text></g></g><g id="ProcessOnG1151" transform="matrix(1.0,0.0,0.0,1.0,97.0,446.3333435058594)" opacity="1.0"><path id="ProcessOnPath1152" d="M12.5 0.0L0.0 11.8L0.0 106.2L12.5 118.0M112.5 118.0L125.0 106.2L125.0 11.8L112.5 0.0" stroke="#323232" stroke-width="2.0" stroke-dasharray="none" opacity="1.0" fill="#cfcfcf"/><path id="ProcessOnPath1153" d="M0.0 0.0L125.0 0.0L125.0 118.0L0.0 118.0Z" stroke="none" stroke-width="0.0" stroke-dasharray="none" opacity="1.0" fill="none"/><g id="ProcessOnG1154" transform="matrix(1.0,0.0,0.0,1.0,10.0,10.25)"><text id="ProcessOnText1155" fill="#000000" font-size="13" x="0.0" y="13.325" font-family="微软雅黑" font-weight="normal" font-style="normal" text-decoration="none" family="微软雅黑" text-anchor="start" size="13">控制器主要接口</text><text id="ProcessOnText1156" fill="#000000" font-size="13" x="0.0" y="29.575" font-family="微软雅黑" font-weight="normal" font-style="normal" text-decoration="none" family="微软雅黑" text-anchor="start" size="13">：</text><text id="ProcessOnText1157" fill="#000000" font-size="13" x="0.0" y="45.825" font-family="微软雅黑" font-weight="normal" font-style="normal" text-decoration="none" family="微软雅黑" text-anchor="start" size="13">1.RS232/RS485</text><text id="ProcessOnText1158" fill="#000000" font-size="13" x="0.0" y="62.075" font-family="微软雅黑" font-weight="normal" font-style="normal" text-decoration="none" family="微软雅黑" text-anchor="start" size="13">2.DSP代码烧录</text><text id="ProcessOnText1159" fill="#000000" font-size="13" x="0.0" y="78.325" font-family="微软雅黑" font-weight="normal" font-style="normal" text-decoration="none" family="微软雅黑" text-anchor="start" size="13">3.CAN通信</text><text id="ProcessOnText1160" fill="#000000" font-size="13" x="0.0" y="94.575" font-family="微软雅黑" font-weight="normal" font-style="normal" text-decoration="none" family="微软雅黑" text-anchor="start" size="13">4.TCP/IP</text></g></g><g id="ProcessOnG1161"><path id="ProcessOnPath1162" d="M374.26012522465834 447.26584200813727C381.0 402.3333435058594 519.0 481.3333282470703 519.5 342.0" stroke="#006633" stroke-width="2.0" stroke-dasharray="none" fill="none" marker-start="url(#ProcessOnMarker1163)"/><g id="ProcessOnG1165" transform="matrix(1.0,0.0,0.0,1.0,449.2200156530823,420.03323215836576)"><path id="ProcessOnPath1166" d="M0 0H121.0V20.0H0Z" fill="#fff" transform="matrix(1.0,0.0,0.0,1.0,-60.5,0.0)"/><text id="ProcessOnText1167" fill="#009900" font-size="16" x="0.0" y="16.4" font-family="微软雅黑" font-weight="normal" font-style="normal" text-decoration="none" family="微软雅黑" text-anchor="middle" size="16">Coder代码生成C</text></g></g><g id="ProcessOnG1168" transform="matrix(1.0,0.0,0.0,1.0,658.0,148.3333282470703)" opacity="1.0"><path id="ProcessOnPath1169" d="M14.666666666666666 0.0L119.33333333333333 0.0C138.88888888888889 0.0 138.88888888888889 44.0 119.33333333333333 44.0L14.666666666666666 44.0C-4.888888888888888 44.0 -4.888888888888888 0.0 14.666666666666666 0.0Z" stroke="#323232" stroke-width="2.0" stroke-dasharray="none" opacity="1.0" fill="#ffcccc"/><g id="ProcessOnG1170" transform="matrix(1.0,0.0,0.0,1.0,10.0,13.875)"><text id="ProcessOnText1171" fill="#000000" font-size="13" x="56.0" y="13.325" font-family="微软雅黑" font-weight="normal" font-style="normal" text-decoration="none" family="微软雅黑" text-anchor="middle" size="13">用户指令</text></g></g><g id="ProcessOnG1172"><path id="ProcessOnPath1173" d="M838.0 290.6666679382324L809.0 291.3333282470703" stroke="#323232" stroke-width="2.0" stroke-dasharray="10.0 4.0 2.0 4.0" fill="none"/></g></g></g></svg>